<svg width="15" height="15" viewBox="0 0 15 15" fill="none" xmlns="http://www.w3.org/2000/svg">
<g clip-path="url(#clip0_452_693)">
<path d="M11.4377 3.5687C11.1939 3.32495 10.8002 3.32495 10.5564 3.5687L7.5002 6.6187L4.44395 3.56245C4.2002 3.3187 3.80645 3.3187 3.5627 3.56245C3.31895 3.8062 3.31895 4.19995 3.5627 4.4437L6.61895 7.49995L3.5627 10.5562C3.31895 10.8 3.31895 11.1937 3.5627 11.4375C3.80645 11.6812 4.2002 11.6812 4.44395 11.4375L7.5002 8.3812L10.5564 11.4375C10.8002 11.6812 11.1939 11.6812 11.4377 11.4375C11.6814 11.1937 11.6814 10.8 11.4377 10.5562L8.38145 7.49995L11.4377 4.4437C11.6752 4.2062 11.6752 3.8062 11.4377 3.5687Z" fill="black"/>
</g>
<defs>
<clipPath id="clip0_452_693">
<rect width="15" height="15" fill="white"/>
</clipPath>
</defs>
</svg>
